<svg xmlns="http://www.w3.org/2000/svg" viewBox="0 0 512 512">
    <!--! Font Awesome Pro 6.1.1 by @fontawesome - https://fontawesome.com License - https://fontawesome.com/license (Commercial License) Copyright 2022 Fonticons, Inc. -->
    <path fill="#D9F8C4"
        d="M 233.5 36.7 C 247.4 31.7 262.6 31.7 276.5 36.7 L 468.5 105.3 C 493.1 114.4 511 138.5 511 165.6 V 408.4 C 511 435.5 493.1 459.6 468.5 468.7 L 276.5 537.3 C 262.6 542.3 247.4 542.3 233.5 537.3 L 41.5 468.7 C 16 459.6 -1 435.5 -1 408.4 V 165.6 C -1 138.5 16 114.4 41.5 105.3 L 233.5 36.7 z M 255 97 L 81.3 159 L 255 221 L 428.7 159 L 255 97 z M 287 465.6 L 447 408.4 V 220.4 L 287 277.6 V 465.6 z" />
</svg>